Coordinates
version=1
nRows=24
nColumns=22
inDegrees=yes

Units are S.I. units (second, meters, Newtons, ...)
If the header above contains a line with 'inDegrees', this indicates whether rotational values are in degrees (yes) or radians (no).

endheader
time	pelvis_tilt	pelvis_list	pelvis_rotation	pelvis_tx	pelvis_ty	pelvis_tz	hip_flexion_r	hip_adduction_r	hip_rotation_r	knee_angle_r	ankle_angle_r	subtalar_angle_r	hip_flexion_l	hip_adduction_l	hip_rotation_l	knee_angle_l	ankle_angle_l	subtalar_angle_l	lumbar_extension	lumbar_bending	lumbar_rotation
      2.37000000	      2.20176898	      1.42093015	    152.75227665	     -0.06555984	      0.98629616	      0.69704154	     -6.44391489	     10.52843514	     15.95557912	    -18.86874223	     16.31037916	     -7.33364341	     24.05585737	     -0.68893056	     18.21165924	     -6.17685137	      6.26763779	     10.40962956	    -14.84173114	      2.07912127	      7.25374221
      2.38000000	      2.27880937	      1.44140802	    152.15595499	     -0.07165183	      0.98554697	      0.69299394	     -6.76390436	     10.51552457	     16.38210503	    -19.07812789	     16.22285653	     -6.98380263	     23.91544887	     -0.80176756	     18.05555698	     -6.44997743	      6.05912744	     10.29500618	    -14.70147125	      2.12737280	      7.25437733
      2.39000000	      2.34802635	      1.43175950	    151.57030423	     -0.07787654	      0.98487309	      0.68886202	     -7.07943776	     10.46958565	     16.79827373	    -19.29282568	     16.09525665	     -6.64000283	     23.79059771	     -0.87338075	     17.87852009	     -6.86294733	      5.65891943	     10.15159722	    -14.54339721	      2.14159662	      7.22431836
      2.40000000	      2.40628652	      1.36921175	    151.01418049	     -0.08422527	      0.98429349	      0.68467031	     -7.36983490	     10.37193127	     17.16532837	    -19.52443424	     15.87474101	     -6.37036124	     23.68369984	     -0.87972765	     17.74249372	     -7.35909146	      5.00972230	     10.04897273	    -14.35702160	      2.09641088	      7.15798355
      2.41000000	      2.42184185	      1.29048189	    150.49630223	     -0.09070060	      0.98388459	      0.68044808	     -7.68943804	     10.23783456	     17.50070682	    -19.76056222	     15.69284692	     -5.85389532	     23.57045352	     -0.83075852	     17.59451303	     -7.94228443	      4.19006647	      9.87402960	    -14.19915012	      2.02053080	      7.02758108
      2.42000000	      2.43529111	      1.14829205	    150.02698964	     -0.09726471	      0.98359386	      0.67616694	     -7.94867502	     10.05979264	     17.76277299	    -20.03945370	     15.35690122	     -5.60418485	     23.48483652	     -0.71537325	     17.51802588	     -8.52354141	      3.18412298	      9.84887790	    -13.99778443	      1.87951758	      6.83134722
      2.43000000	      2.39038817	      0.97596589	    149.59899937	     -0.10392967	      0.98352099	      0.67182834	     -8.22788851	      9.83182365	     17.99579407	    -20.34861710	     15.08291808	     -5.02934009	     23.37942431	     -0.53395682	     17.42333122	     -9.13511905	      2.12124147	      9.82956086	    -13.83163160	      1.67785457	      6.56689827
      2.44000000	      2.32697319	      0.78317528	    149.24236381	     -0.11072028	      0.98362331	      0.66747095	     -8.49150442	      9.58580023	     18.12795783	    -20.67576575	     14.64518635	     -4.48796291	     23.29561070	     -0.30153088	     17.37301762	     -9.79095187	      1.10240710	      9.88233701	    -13.66194017	      1.45285924	      6.25580862
      2.45000000	      2.23317957	      0.56538987	    148.92909861	     -0.11759349	      0.98389612	      0.66303078	     -8.73216934	      9.31915176	     18.21125550	    -21.06342673	     14.14692860	     -3.98097638	     23.20464684	     -0.02863435	     17.31874640	    -10.46177707	      0.18251765	      9.95289749	    -13.50033979	      1.18313268	      5.87426217
      2.46000000	      2.10547193	      0.36692927	    148.66965621	     -0.12458855	      0.98435760	      0.65856554	     -8.99244009	      9.05651344	     18.22616780	    -21.47205495	     13.56545638	     -3.29936423	     23.11316474	      0.26487046	     17.23629555	    -11.22447674	     -0.54393644	     10.02208809	    -13.37831131	      0.91729181	      5.48674576
      2.47000000	      1.94779012	      0.16271914	    148.43214353	     -0.13166687	      0.98497532	      0.65403008	     -9.22343380	      8.78329250	     18.18684760	    -21.96576533	     12.89905263	     -2.65333538	     22.99459136	      0.57594209	     17.10488536	    -12.00122981	     -1.08436343	     10.02857203	    -13.27833320	      0.62922185	      5.06729945
      2.48000000	      1.76350699	      0.00125171	    148.21890103	     -0.13883013	      0.98576211	      0.64943049	     -9.47921966	      8.53694615	     18.13503032	    -22.48266470	     12.15709893	     -1.83704088	     22.85400815	      0.87055575	     16.91253912	    -12.85260258	     -1.37395882	      9.93370429	    -13.22795963	      0.36546524	      4.66378692
      2.49000000	      1.55797729	     -0.13963969	    148.00430191	     -0.14605302	      0.98669364	      0.64477041	     -9.71481601	      8.29791466	     18.05625134	    -23.06931669	     11.32046885	     -0.99137077	     22.67069954	      1.15359894	     16.66927350	    -13.70834618	     -1.45769180	      9.69294942	    -13.21029358	      0.10855996	      4.29048412
      2.50000000	      1.33972067	     -0.26237565	    147.77664519	     -0.15330481	      0.98774826	      0.64003813	     -9.91379823	      8.06720822	     17.95734155	    -23.73521004	     10.37350552	     -0.10367847	     22.43486914	      1.41784455	     16.39438902	    -14.53131088	     -1.35533859	      9.29678723	    -13.21582765	     -0.14056027	      3.95067204
      2.51000000	      1.11392174	     -0.38075330	    147.51548048	     -0.16053413	      0.98890199	      0.63520840	    -10.04057602	      7.83089259	     17.81088218	    -24.51336060	      9.32304604	      0.88331582	     22.12914159	      1.66445348	     16.13115007	    -15.26774618	     -1.09058487	      8.73106391	    -13.23258946	     -0.40181428	      3.67889859
      2.52000000	      0.90315883	     -0.46771890	    147.21487047	     -0.16767244	      0.99012932	      0.63030079	    -10.08559168	      7.62687544	     17.64500049	    -25.40148091	      8.15131436	      1.93009958	     21.77706683	      1.85756700	     15.83866383	    -15.93798349	     -0.71719020	      8.05380839	    -13.26146536	     -0.62970259	      3.46814705
      2.53000000	      0.71772436	     -0.53927287	    146.87025597	     -0.17469513	      0.99138495	      0.62531034	    -10.01852420	      7.44336545	     17.44403176	    -26.41306575	      6.87072837	      3.06404687	     21.38359463	      2.00205745	     15.53591334	    -16.51458491	     -0.26356267	      7.29924116	    -13.27966096	     -0.83774478	      3.32206677
      2.54000000	      0.56455746	     -0.60332788	    146.48438680	     -0.18158567	      0.99263535	      0.62025720	     -9.82316506	      7.27427224	     17.20091006	    -27.55104260	      5.49506564	      4.29003894	     20.96372727	      2.10162809	     15.21130314	    -16.99801827	      0.24836391	      6.51368594	    -13.27532110	     -1.02582454	      3.21763661
      2.55000000	      0.46415423	     -0.63286515	    146.04176757	     -0.18827459	      0.99385570	      0.61515674	     -9.48646595	      7.15305780	     16.93925364	    -28.82364672	      4.00875343	      5.56608480	     20.53572181	      2.11594413	     14.84829244	    -17.40954603	      0.80125498	      5.75474568	    -13.25262217	     -1.15428670	      3.19903787
      2.56000000	      0.41237539	     -0.64578532	    145.55130085	     -0.19476725	      0.99501733	      0.61003527	     -9.00109735	      7.05983723	     16.65380484	    -30.22952907	      2.44837367	      6.87935076	     20.11387892	      2.06721689	     14.44527896	    -17.76125316	      1.37816560	      5.04734608	    -13.20375403	     -1.23987641	      3.23672179
      2.57000000	      0.40277643	     -0.64764212	    145.01705991	     -0.20103704	      0.99610491	      0.60492605	     -8.36228318	      6.98627141	     16.34732002	    -31.77916332	      0.87336470	      8.21463836	     19.70748046	      1.96667336	     14.00585805	    -18.06914074	      1.95984016	      4.40823333	    -13.13616354	     -1.28704325	      3.32112507
      2.58000000	      0.42960484	     -0.64598689	    144.43490551	     -0.20707422	      0.99709726	      0.59981637	     -7.57165296	      6.92061425	     16.02567286	    -33.46877772	     -0.65950555	      9.52407526	     19.32466444	      1.82230313	     13.51998285	    -18.35079657	      2.55801039	      3.85675751	    -13.04953595	     -1.31136580	      3.44545156
      2.59000000	      0.47843858	     -0.65064533	    143.80995793	     -0.21286909	      0.99798922	      0.59473914	     -6.63251136	      6.84609522	     15.69152099	    -35.30179449	     -2.06997219	     10.78095921	     18.97191063	      1.65613651	     12.99304092	    -18.62891678	      3.15900569	      3.39356271	    -12.95581883	     -1.32734757	      3.60204980
      2.60000000	      0.53616347	     -0.67431074	    143.14728539	     -0.21845211	      0.99877159	      0.58972247	     -5.54944491	      6.73938169	     15.33383080	    -37.26960296	     -3.28490325	     11.95481751	     18.64827375	      1.49125492	     12.42137736	    -18.90836928	      3.75764645	      3.01346929	    -12.85817138	     -1.34763292	      3.77423619
